<?xml version="1.0" encoding="us-ascii" standalone="no"?><svg xmlns="http://www.w3.org/2000/svg" xmlns:xlink="http://www.w3.org/1999/xlink" contentStyleType="text/css" height="955px" preserveAspectRatio="none" style="width:950px;height:955px;background:#FFFFFF;" version="1.1" viewBox="0 0 950 955" width="950px" zoomAndPan="magnify"><defs/><g><text fill="#000000" font-family="sans-serif" font-size="14" font-weight="bold" lengthAdjust="spacing" textLength="175" x="386.0625" y="32.9951">SyncOddly Login Flow</text><ellipse cx="505.125" cy="57.2969" fill="#222222" rx="10" ry="10" style="stroke:#222222;stroke-width:1.0;"/><rect fill="#F1F1F1" height="47.9375" rx="12.5" ry="12.5" style="stroke:#181818;stroke-width:0.5;" width="116" x="447.125" y="87.2969"/><text fill="#000000" font-family="sans-serif" font-size="12" lengthAdjust="spacing" textLength="94" x="457.125" y="108.4355">Loading Screen</text><text fill="#000000" font-family="sans-serif" font-size="12" lengthAdjust="spacing" textLength="96" x="457.125" y="122.4043">loading settings</text><rect fill="#F1F1F1" height="33.9688" rx="12.5" ry="12.5" style="stroke:#181818;stroke-width:0.5;" width="180" x="415.125" y="203.6367"/><text fill="#000000" font-family="sans-serif" font-size="12" lengthAdjust="spacing" textLength="160" x="425.125" y="224.7754">local/server picker screen</text><polygon fill="#F1F1F1" points="455.625,155.2344,554.625,155.2344,566.625,167.2344,554.625,179.2344,455.625,179.2344,443.625,167.2344,455.625,155.2344" style="stroke:#181818;stroke-width:0.5;"/><text fill="#000000" font-family="sans-serif" font-size="11" lengthAdjust="spacing" textLength="43" x="509.125" y="189.4448">first run</text><text fill="#000000" font-family="sans-serif" font-size="11" lengthAdjust="spacing" textLength="99" x="455.625" y="171.0425">Has saved prefs?</text><text fill="#000000" font-family="sans-serif" font-size="11" lengthAdjust="spacing" textLength="21" x="566.625" y="164.6401">yes</text><polygon fill="#F1F1F1" points="505.125,257.6055,517.125,269.6055,505.125,281.6055,493.125,269.6055,505.125,257.6055" style="stroke:#181818;stroke-width:0.5;"/><polygon fill="#F1F1F1" points="453.625,301.6055,556.625,301.6055,568.625,313.6055,556.625,325.6055,453.625,325.6055,441.625,313.6055,453.625,301.6055" style="stroke:#181818;stroke-width:0.5;"/><text fill="#000000" font-family="sans-serif" font-size="11" lengthAdjust="spacing" textLength="103" x="453.625" y="317.4136">prefs UsingServer</text><text fill="#000000" font-family="sans-serif" font-size="11" lengthAdjust="spacing" textLength="37" x="404.625" y="311.0112">server</text><text fill="#000000" font-family="sans-serif" font-size="11" lengthAdjust="spacing" textLength="26" x="568.625" y="311.0112">local</text><rect fill="#F1F1F1" height="33.9688" rx="12.5" ry="12.5" style="stroke:#181818;stroke-width:0.5;" width="183" x="206.25" y="384.0078"/><text fill="#000000" font-family="sans-serif" font-size="12" lengthAdjust="spacing" textLength="163" x="216.25" y="405.1465">try logging in with saved id</text><polygon fill="#F1F1F1" points="234.75,335.6055,360.75,335.6055,372.75,347.6055,360.75,359.6055,234.75,359.6055,222.75,347.6055,234.75,335.6055" style="stroke:#181818;stroke-width:0.5;"/><text fill="#000000" font-family="sans-serif" font-size="11" lengthAdjust="spacing" textLength="35" x="301.75" y="369.8159">use id</text><text fill="#000000" font-family="sans-serif" font-size="11" lengthAdjust="spacing" textLength="126" x="234.75" y="351.4136">prefs hasSavedUserId</text><polygon fill="#F1F1F1" points="297.75,437.9766,309.75,449.9766,297.75,461.9766,285.75,449.9766,297.75,437.9766" style="stroke:#181818;stroke-width:0.5;"/><rect fill="#F1F1F1" height="33.9688" rx="12.5" ry="12.5" style="stroke:#181818;stroke-width:0.5;" width="168" x="213.75" y="525.9766"/><text fill="#000000" font-family="sans-serif" font-size="12" lengthAdjust="spacing" textLength="148" x="223.75" y="547.1152">registration/login screen</text><polygon fill="#F1F1F1" points="297.75,579.9453,297.75,579.9453,309.75,591.9453,297.75,603.9453,297.75,603.9453,285.75,591.9453,297.75,579.9453" style="stroke:#181818;stroke-width:0.5;"/><rect fill="#F1F1F1" height="33.9688" rx="12.5" ry="12.5" style="stroke:#181818;stroke-width:0.5;" width="147" x="37" y="639.5547"/><text fill="#000000" font-family="sans-serif" font-size="12" lengthAdjust="spacing" textLength="127" x="47" y="660.6934">setup new user subs</text><rect fill="#F1F1F1" height="47.9375" rx="12.5" ry="12.5" style="stroke:#181818;stroke-width:0.5;" width="149" x="36" y="703.3281"/><text fill="#000000" font-family="sans-serif" font-size="12" lengthAdjust="spacing" textLength="69" x="46" y="724.4668">set state to</text><text fill="#000000" font-family="sans-serif" font-size="12" lengthAdjust="spacing" textLength="129" x="46" y="738.4355">show person edit tab</text><rect fill="#F1F1F1" height="33.9688" rx="12.5" ry="12.5" style="stroke:#181818;stroke-width:0.5;" width="114" x="196.5" y="639.5547"/><text fill="#000000" font-family="sans-serif" font-size="12" lengthAdjust="spacing" textLength="94" x="206.5" y="660.6934">display warning</text><rect fill="#F1F1F1" height="33.9688" rx="12.5" ry="12.5" style="stroke:#181818;stroke-width:0.5;" width="183" x="330.5" y="639.5547"/><text fill="#000000" font-family="sans-serif" font-size="12" lengthAdjust="spacing" textLength="163" x="340.5" y="660.6934">setup server subscriptions</text><ellipse cx="544.5" cy="650.5547" fill="none" rx="11" ry="11" style="stroke:#222222;stroke-width:1.0;"/><ellipse cx="544.5" cy="650.5547" fill="#222222" rx="6" ry="6" style="stroke:#222222;stroke-width:1.0;"/><polygon fill="#F1F1F1" points="297.75,761.2656,297.75,761.2656,309.75,773.2656,297.75,785.2656,297.75,785.2656,285.75,773.2656,297.75,761.2656" style="stroke:#181818;stroke-width:0.5;"/><polygon fill="#F1F1F1" points="240.25,481.9766,355.25,481.9766,367.25,493.9766,355.25,505.9766,240.25,505.9766,228.25,493.9766,240.25,481.9766" style="stroke:#181818;stroke-width:0.5;"/><text fill="#000000" font-family="sans-serif" font-size="11" lengthAdjust="spacing" textLength="115" x="240.25" y="497.7847">while not logged in?</text><rect fill="#F1F1F1" height="33.9688" rx="12.5" ry="12.5" style="stroke:#181818;stroke-width:0.5;" width="222" x="601.5" y="335.6055"/><text fill="#000000" font-family="sans-serif" font-size="12" lengthAdjust="spacing" textLength="202" x="611.5" y="356.7441">Open local database immediately</text><polygon fill="#F1F1F1" points="505.125,813.2656,517.125,825.2656,505.125,837.2656,493.125,825.2656,505.125,813.2656" style="stroke:#181818;stroke-width:0.5;"/><path d="M702.125,847.2656 L702.125,870.9648 L682.125,874.9648 L702.125,878.9648 L702.125,902.6641 A0,0 0 0 0 702.125,902.6641 L938.125,902.6641 A0,0 0 0 0 938.125,902.6641 L938.125,857.2656 L928.125,847.2656 L702.125,847.2656 A0,0 0 0 0 702.125,847.2656 " fill="#FEFFDD" style="stroke:#181818;stroke-width:0.5;"/><path d="M928.125,847.2656 L928.125,857.2656 L938.125,857.2656 L928.125,847.2656 " fill="#FEFFDD" style="stroke:#181818;stroke-width:0.5;"/><text fill="#000000" font-family="sans-serif" font-size="13" lengthAdjust="spacing" textLength="211" x="708.125" y="864.3325">Different tab selected depending</text><text fill="#000000" font-family="sans-serif" font-size="13" lengthAdjust="spacing" textLength="153" x="708.125" y="879.4653">on if has current Person</text><text fill="#000000" font-family="sans-serif" font-size="13" lengthAdjust="spacing" textLength="111" x="708.125" y="894.5981">for login account.</text><rect fill="#F1F1F1" height="33.9688" rx="12.5" ry="12.5" style="stroke:#181818;stroke-width:0.5;" width="354" x="328.125" y="857.9805"/><text fill="#000000" font-family="sans-serif" font-size="12" lengthAdjust="spacing" textLength="334" x="338.125" y="879.1191">Show different tab bar depending on App/Debug mode</text><ellipse cx="505.125" cy="933.6641" fill="none" rx="11" ry="11" style="stroke:#222222;stroke-width:1.0;"/><ellipse cx="505.125" cy="933.6641" fill="#222222" rx="6" ry="6" style="stroke:#222222;stroke-width:1.0;"/><line style="stroke:#181818;stroke-width:1.0;" x1="505.125" x2="505.125" y1="67.2969" y2="87.2969"/><polygon fill="#181818" points="501.125,77.2969,505.125,87.2969,509.125,77.2969,505.125,81.2969" style="stroke:#181818;stroke-width:1.0;"/><line style="stroke:#181818;stroke-width:1.0;" x1="505.125" x2="505.125" y1="179.2344" y2="203.6367"/><polygon fill="#181818" points="501.125,193.6367,505.125,203.6367,509.125,193.6367,505.125,197.6367" style="stroke:#181818;stroke-width:1.0;"/><line style="stroke:#181818;stroke-width:1.0;" x1="566.625" x2="605.125" y1="167.2344" y2="167.2344"/><polygon fill="#181818" points="601.125,210.6211,605.125,220.6211,609.125,210.6211,605.125,214.6211" style="stroke:#181818;stroke-width:1.0;"/><line style="stroke:#181818;stroke-width:1.0;" x1="605.125" x2="605.125" y1="167.2344" y2="269.6055"/><line style="stroke:#181818;stroke-width:1.0;" x1="605.125" x2="517.125" y1="269.6055" y2="269.6055"/><polygon fill="#181818" points="527.125,265.6055,517.125,269.6055,527.125,273.6055,523.125,269.6055" style="stroke:#181818;stroke-width:1.0;"/><line style="stroke:#181818;stroke-width:1.0;" x1="505.125" x2="505.125" y1="237.6055" y2="257.6055"/><polygon fill="#181818" points="501.125,247.6055,505.125,257.6055,509.125,247.6055,505.125,251.6055" style="stroke:#181818;stroke-width:1.0;"/><line style="stroke:#181818;stroke-width:1.0;" x1="505.125" x2="505.125" y1="135.2344" y2="155.2344"/><polygon fill="#181818" points="501.125,145.2344,505.125,155.2344,509.125,145.2344,505.125,149.2344" style="stroke:#181818;stroke-width:1.0;"/><line style="stroke:#181818;stroke-width:1.0;" x1="297.75" x2="297.75" y1="359.6055" y2="384.0078"/><polygon fill="#181818" points="293.75,374.0078,297.75,384.0078,301.75,374.0078,297.75,378.0078" style="stroke:#181818;stroke-width:1.0;"/><line style="stroke:#181818;stroke-width:1.0;" x1="372.75" x2="399.25" y1="347.6055" y2="347.6055"/><polygon fill="#181818" points="395.25,390.9922,399.25,400.9922,403.25,390.9922,399.25,394.9922" style="stroke:#181818;stroke-width:1.0;"/><line style="stroke:#181818;stroke-width:1.0;" x1="399.25" x2="399.25" y1="347.6055" y2="449.9766"/><line style="stroke:#181818;stroke-width:1.0;" x1="399.25" x2="309.75" y1="449.9766" y2="449.9766"/><polygon fill="#181818" points="319.75,445.9766,309.75,449.9766,319.75,453.9766,315.75,449.9766" style="stroke:#181818;stroke-width:1.0;"/><line style="stroke:#181818;stroke-width:1.0;" x1="297.75" x2="297.75" y1="417.9766" y2="437.9766"/><polygon fill="#181818" points="293.75,427.9766,297.75,437.9766,301.75,427.9766,297.75,431.9766" style="stroke:#181818;stroke-width:1.0;"/><line style="stroke:#181818;stroke-width:1.0;" x1="110.5" x2="110.5" y1="673.5234" y2="703.3281"/><polygon fill="#181818" points="106.5,693.3281,110.5,703.3281,114.5,693.3281,110.5,697.3281" style="stroke:#181818;stroke-width:1.0;"/><line style="stroke:#181818;stroke-width:1.0;" x1="285.75" x2="110.5" y1="591.9453" y2="591.9453"/><line style="stroke:#181818;stroke-width:1.0;" x1="110.5" x2="110.5" y1="591.9453" y2="639.5547"/><polygon fill="#181818" points="106.5,629.5547,110.5,639.5547,114.5,629.5547,110.5,633.5547" style="stroke:#181818;stroke-width:1.0;"/><text fill="#000000" font-family="sans-serif" font-size="11" lengthAdjust="spacing" textLength="72" x="114.5" y="619.5581">register new</text><line style="stroke:#181818;stroke-width:1.0;" x1="309.75" x2="544.5" y1="591.9453" y2="591.9453"/><line style="stroke:#181818;stroke-width:1.0;" x1="544.5" x2="544.5" y1="591.9453" y2="639.5547"/><polygon fill="#181818" points="540.5,629.5547,544.5,639.5547,548.5,629.5547,544.5,633.5547" style="stroke:#181818;stroke-width:1.0;"/><text fill="#000000" font-family="sans-serif" font-size="11" lengthAdjust="spacing" textLength="21" x="548.5" y="619.5581">quit</text><line style="stroke:#181818;stroke-width:1.0;" x1="253.5" x2="253.5" y1="591.9453" y2="639.5547"/><polygon fill="#181818" points="249.5,629.5547,253.5,639.5547,257.5,629.5547,253.5,633.5547" style="stroke:#181818;stroke-width:1.0;"/><text fill="#000000" font-family="sans-serif" font-size="11" lengthAdjust="spacing" textLength="48" x="257.5" y="614.5581">login fail</text><line style="stroke:#181818;stroke-width:1.0;" x1="422" x2="422" y1="591.9453" y2="639.5547"/><polygon fill="#181818" points="418,629.5547,422,639.5547,426,629.5547,422,633.5547" style="stroke:#181818;stroke-width:1.0;"/><text fill="#000000" font-family="sans-serif" font-size="11" lengthAdjust="spacing" textLength="47" x="426" y="614.5581">login OK</text><line style="stroke:#181818;stroke-width:1.0;" x1="110.5" x2="110.5" y1="751.2656" y2="773.2656"/><line style="stroke:#181818;stroke-width:1.0;" x1="110.5" x2="285.75" y1="773.2656" y2="773.2656"/><polygon fill="#181818" points="275.75,769.2656,285.75,773.2656,275.75,777.2656,279.75,773.2656" style="stroke:#181818;stroke-width:1.0;"/><line style="stroke:#181818;stroke-width:1.0;" x1="422" x2="422" y1="673.5234" y2="773.2656"/><line style="stroke:#181818;stroke-width:1.0;" x1="422" x2="309.75" y1="773.2656" y2="773.2656"/><polygon fill="#181818" points="319.75,769.2656,309.75,773.2656,319.75,777.2656,315.75,773.2656" style="stroke:#181818;stroke-width:1.0;"/><line style="stroke:#181818;stroke-width:1.0;" x1="253.5" x2="253.5" y1="673.5234" y2="773.2656"/><polygon fill="#181818" points="249.5,763.2656,253.5,773.2656,257.5,763.2656,253.5,767.2656" style="stroke:#181818;stroke-width:1.0;"/><line style="stroke:#181818;stroke-width:1.0;" x1="297.75" x2="297.75" y1="559.9453" y2="579.9453"/><polygon fill="#181818" points="293.75,569.9453,297.75,579.9453,301.75,569.9453,297.75,573.9453" style="stroke:#181818;stroke-width:1.0;"/><line style="stroke:#181818;stroke-width:1.0;" x1="297.75" x2="297.75" y1="505.9766" y2="525.9766"/><polygon fill="#181818" points="293.75,515.9766,297.75,525.9766,301.75,515.9766,297.75,519.9766" style="stroke:#181818;stroke-width:1.0;"/><line style="stroke:#181818;stroke-width:1.0;" x1="297.75" x2="297.75" y1="785.2656" y2="795.2656"/><line style="stroke:#181818;stroke-width:1.0;" x1="297.75" x2="581.5" y1="795.2656" y2="795.2656"/><polygon fill="#181818" points="577.5,693.5234,581.5,683.5234,585.5,693.5234,581.5,689.5234" style="stroke:#181818;stroke-width:1.0;"/><line style="stroke:#181818;stroke-width:1.0;" x1="581.5" x2="581.5" y1="493.9766" y2="795.2656"/><line style="stroke:#181818;stroke-width:1.0;" x1="581.5" x2="367.25" y1="493.9766" y2="493.9766"/><polygon fill="#181818" points="377.25,489.9766,367.25,493.9766,377.25,497.9766,373.25,493.9766" style="stroke:#181818;stroke-width:1.0;"/><line style="stroke:#181818;stroke-width:1.0;" x1="228.25" x2="24" y1="493.9766" y2="493.9766"/><polygon fill="#181818" points="20,688.5234,24,698.5234,28,688.5234,24,692.5234" style="stroke:#181818;stroke-width:1.0;"/><line style="stroke:#181818;stroke-width:1.0;" x1="24" x2="24" y1="493.9766" y2="825.2656"/><line style="stroke:#181818;stroke-width:1.0;" x1="24" x2="493.125" y1="825.2656" y2="825.2656"/><polygon fill="#181818" points="483.125,821.2656,493.125,825.2656,483.125,829.2656,487.125,825.2656" style="stroke:#181818;stroke-width:1.0;"/><line style="stroke:#181818;stroke-width:1.0;" x1="297.75" x2="297.75" y1="461.9766" y2="481.9766"/><polygon fill="#181818" points="293.75,471.9766,297.75,481.9766,301.75,471.9766,297.75,475.9766" style="stroke:#181818;stroke-width:1.0;"/><line style="stroke:#181818;stroke-width:1.0;" x1="441.625" x2="297.75" y1="313.6055" y2="313.6055"/><line style="stroke:#181818;stroke-width:1.0;" x1="297.75" x2="297.75" y1="313.6055" y2="335.6055"/><polygon fill="#181818" points="293.75,325.6055,297.75,335.6055,301.75,325.6055,297.75,329.6055" style="stroke:#181818;stroke-width:1.0;"/><line style="stroke:#181818;stroke-width:1.0;" x1="568.625" x2="712.5" y1="313.6055" y2="313.6055"/><line style="stroke:#181818;stroke-width:1.0;" x1="712.5" x2="712.5" y1="313.6055" y2="335.6055"/><polygon fill="#181818" points="708.5,325.6055,712.5,335.6055,716.5,325.6055,712.5,329.6055" style="stroke:#181818;stroke-width:1.0;"/><line style="stroke:#181818;stroke-width:1.0;" x1="712.5" x2="712.5" y1="369.5742" y2="825.2656"/><line style="stroke:#181818;stroke-width:1.0;" x1="712.5" x2="517.125" y1="825.2656" y2="825.2656"/><polygon fill="#181818" points="527.125,821.2656,517.125,825.2656,527.125,829.2656,523.125,825.2656" style="stroke:#181818;stroke-width:1.0;"/><line style="stroke:#181818;stroke-width:1.0;" x1="505.125" x2="505.125" y1="281.6055" y2="301.6055"/><polygon fill="#181818" points="501.125,291.6055,505.125,301.6055,509.125,291.6055,505.125,295.6055" style="stroke:#181818;stroke-width:1.0;"/><line style="stroke:#181818;stroke-width:1.0;" x1="505.125" x2="505.125" y1="837.2656" y2="857.9805"/><polygon fill="#181818" points="501.125,847.9805,505.125,857.9805,509.125,847.9805,505.125,851.9805" style="stroke:#181818;stroke-width:1.0;"/><line style="stroke:#181818;stroke-width:1.0;" x1="505.125" x2="505.125" y1="891.9492" y2="922.6641"/><polygon fill="#181818" points="501.125,912.6641,505.125,922.6641,509.125,912.6641,505.125,916.6641" style="stroke:#181818;stroke-width:1.0;"/><!--SRC=[RL8zRzmm39sZNy7Hj_HsUmWA14MB1hW0HhOiEecsXUWaLQHpyByF9Ti9xb0likptGJwI7Nk4VWdcPArVu3cEBi0l7w-Wb2BMcPLgdwEsBepGcumOteBVxeJCSb8dO3T0yriJaFv02odZG8y7u0a3D0lIGQ4dX6PmcHZo70uAeFNHQ7yap1-O8JdpBWTLaqvXi6vOTQiQl99uzHMx2w_C8WNVk4bJNufubRz_x0wTnTtP2fMdvRo0Z-DOsf2EhuwdhNHdkm8IUz4iRzV9IKRDUeJ8bLU0uN6NWpRZw8YpPXV3qTSKzqOs28c7cQ3vuXXT0e6LAOq7l7xzgveIxvpAPv3Y9PZvJDqz06H6ZC3nBT0aKqkOAGP0wnXOdxixixMoGJj_QsKT9QyNkEeS99B_qqv_RqXxWTluIdackrGIe7k1VxFZ6p9nJFjTebx3sNAlIIjO5wQko44zF41xIZB8UWUhfRaYxIuNwLKYy8juhZlJzYK9UHimOwWvm5bdi9WAG2Ok2VrCwVY4vtc4IxJOAHaiGdRZnA2URgY47WtBmB_vIWHauMJJmCov8bzgy6g8UKjB6nFdm3_A8fUrGLLw_WG0]--></g></svg>