<?xml version="1.0" encoding="us-ascii" standalone="no"?><svg xmlns="http://www.w3.org/2000/svg" xmlns:xlink="http://www.w3.org/1999/xlink" contentStyleType="text/css" height="596px" preserveAspectRatio="none" style="width:927px;height:596px;background:#FFFFFF;" version="1.1" viewBox="0 0 927 596" width="927px" zoomAndPan="magnify"><defs/><g><text fill="#000000" font-family="sans-serif" font-size="14" font-weight="bold" lengthAdjust="spacing" textLength="187" x="360" y="22.9951">SyncOddly Main States</text><!--cluster FR--><g id="cluster_FR"><path d="M451.5,110.2969 L618.5,110.2969 A12.5,12.5 0 0 1 631,122.7969 L631,131.5938 L439,131.5938 L439,122.7969 A12.5,12.5 0 0 1 451.5,110.2969 " fill="#F1F1F1" style="stroke:#F1F1F1;stroke-width:1.0;"/><rect fill="none" height="104" rx="12.5" ry="12.5" style="stroke:#181818;stroke-width:0.5;" width="192" x="439" y="110.2969"/><line style="stroke:#181818;stroke-width:0.5;" x1="439" x2="631" y1="131.5938" y2="131.5938"/><text fill="#000000" font-family="sans-serif" font-size="14" lengthAdjust="spacing" textLength="63" x="503.5" y="127.292">First Run</text></g><!--cluster Srv--><g id="cluster_Srv"><path d="M19.5,286.2969 L480.5,286.2969 A12.5,12.5 0 0 1 493,298.7969 L493,307.5938 L7,307.5938 L7,298.7969 A12.5,12.5 0 0 1 19.5,286.2969 " fill="#F1F1F1" style="stroke:#F1F1F1;stroke-width:1.0;"/><rect fill="none" height="304" rx="12.5" ry="12.5" style="stroke:#181818;stroke-width:0.5;" width="486" x="7" y="286.2969"/><line style="stroke:#181818;stroke-width:0.5;" x1="7" x2="493" y1="307.5938" y2="307.5938"/><text fill="#000000" font-family="sans-serif" font-size="14" lengthAdjust="spacing" textLength="89" x="205.5" y="303.292">Using Server</text></g><!--cluster Loc--><g id="cluster_Loc"><path d="M537.5,316.7969 L901.5,316.7969 A12.5,12.5 0 0 1 914,329.2969 L914,338.0938 L525,338.0938 L525,329.2969 A12.5,12.5 0 0 1 537.5,316.7969 " fill="#F1F1F1" style="stroke:#F1F1F1;stroke-width:1.0;"/><rect fill="none" height="101" rx="12.5" ry="12.5" style="stroke:#181818;stroke-width:0.5;" width="389" x="525" y="316.7969"/><line style="stroke:#181818;stroke-width:0.5;" x1="525" x2="914" y1="338.0938" y2="338.0938"/><text fill="#000000" font-family="sans-serif" font-size="14" lengthAdjust="spacing" textLength="73" x="683" y="333.792">Local Only</text></g><g id="FR.FRP"><rect fill="#F1F1F1" height="52.5938" rx="12.5" ry="12.5" style="stroke:#181818;stroke-width:0.5;" width="159" x="455.5" y="145.2969"/><line style="stroke:#181818;stroke-width:0.5;" x1="455.5" x2="614.5" y1="187.8906" y2="187.8906"/><text fill="#000000" font-family="sans-serif" font-size="14" lengthAdjust="spacing" textLength="109" x="480.5" y="163.292">Modal First Run</text><text fill="#000000" font-family="sans-serif" font-size="14" lengthAdjust="spacing" textLength="139" x="465.5" y="179.5889">Local/Server picker</text></g><g id="Srv.LReg"><rect fill="#F1F1F1" height="50.2656" rx="12.5" ry="12.5" style="stroke:#181818;stroke-width:0.5;" width="199" x="250.5" y="351.7969"/><line style="stroke:#181818;stroke-width:0.5;" x1="250.5" x2="449.5" y1="378.0938" y2="378.0938"/><text fill="#000000" font-family="sans-serif" font-size="14" lengthAdjust="spacing" textLength="179" x="260.5" y="369.792">Modal Login/Registration</text><text fill="#000000" font-family="sans-serif" font-size="12" lengthAdjust="spacing" textLength="155" x="255.5" y="394.2324">Async wait for verification</text></g><g id="Srv.TAMsrv"><rect fill="#F1F1F1" height="50" rx="12.5" ry="12.5" style="stroke:#181818;stroke-width:0.5;" width="152" x="64" y="516.2969"/><line style="stroke:#181818;stroke-width:0.5;" x1="64" x2="216" y1="542.5938" y2="542.5938"/><text fill="#000000" font-family="sans-serif" font-size="14" lengthAdjust="spacing" textLength="132" x="74" y="534.292">Tabbed App Mode</text></g><g id="Srv.TDMsrv"><rect fill="#F1F1F1" height="50" rx="12.5" ry="12.5" style="stroke:#181818;stroke-width:0.5;" width="169" x="251.5" y="516.2969"/><line style="stroke:#181818;stroke-width:0.5;" x1="251.5" x2="420.5" y1="542.5938" y2="542.5938"/><text fill="#000000" font-family="sans-serif" font-size="14" lengthAdjust="spacing" textLength="149" x="261.5" y="534.292">Tabbed Debug Mode</text></g><g id="Srv.MUE"><rect fill="#F1F1F1" height="94.5" rx="12.5" ry="12.5" style="stroke:#181818;stroke-width:0.5;" width="184" x="31" y="329.2969"/><line style="stroke:#181818;stroke-width:0.5;" x1="31" x2="215" y1="371.8906" y2="371.8906"/><text fill="#000000" font-family="sans-serif" font-size="14" lengthAdjust="spacing" textLength="85" x="80.5" y="347.292">Modal Entry</text><text fill="#000000" font-family="sans-serif" font-size="14" lengthAdjust="spacing" textLength="144" x="51" y="363.5889">Current User Details</text><text fill="#000000" font-family="sans-serif" font-size="12" lengthAdjust="spacing" textLength="164" x="36" y="388.0293">adding Name to login email</text><text fill="#000000" font-family="sans-serif" font-size="12" lengthAdjust="spacing" textLength="149" x="36" y="401.998">associating with invisible</text><text fill="#000000" font-family="sans-serif" font-size="12" lengthAdjust="spacing" textLength="44" x="36" y="415.9668">user_id</text></g><g id="Loc.TAMloc"><rect fill="#F1F1F1" height="50" rx="12.5" ry="12.5" style="stroke:#181818;stroke-width:0.5;" width="152" x="746" y="351.7969"/><line style="stroke:#181818;stroke-width:0.5;" x1="746" x2="898" y1="378.0938" y2="378.0938"/><text fill="#000000" font-family="sans-serif" font-size="14" lengthAdjust="spacing" textLength="132" x="756" y="369.792">Tabbed App Mode</text></g><g id="Loc.TDMloc"><rect fill="#F1F1F1" height="50" rx="12.5" ry="12.5" style="stroke:#181818;stroke-width:0.5;" width="169" x="541.5" y="351.7969"/><line style="stroke:#181818;stroke-width:0.5;" x1="541.5" x2="710.5" y1="378.0938" y2="378.0938"/><text fill="#000000" font-family="sans-serif" font-size="14" lengthAdjust="spacing" textLength="149" x="551.5" y="369.792">Tabbed Debug Mode</text></g><g id="Sett"><rect fill="#F1F1F1" height="52.5938" rx="12.5" ry="12.5" style="stroke:#181818;stroke-width:0.5;" width="141" x="279.5" y="145.2969"/><line style="stroke:#181818;stroke-width:0.5;" x1="279.5" x2="420.5" y1="187.8906" y2="187.8906"/><text fill="#000000" font-family="sans-serif" font-size="14" lengthAdjust="spacing" textLength="121" x="289.5" y="163.292">Reading settings</text><text fill="#000000" font-family="sans-serif" font-size="14" lengthAdjust="spacing" textLength="97" x="301.5" y="179.5889">after first run</text></g><ellipse cx="460" cy="53.2969" fill="#222222" rx="10" ry="10" style="stroke:#222222;stroke-width:1.0;"/><!--link LReg to TAMsrv--><g id="link_LReg_TAMsrv"><path d="M318.561,402.1249 C278.857,432.8479 215.6982,481.721 176.0562,512.3966 " fill="none" id="LReg-to-TAMsrv" style="stroke:#181818;stroke-width:1.0;"/><polygon fill="#181818" points="171.311,516.0685,180.8768,513.7241,175.2653,513.0085,175.9809,507.3971,171.311,516.0685" style="stroke:#181818;stroke-width:1.0;"/></g><!--link LReg to TDMsrv--><g id="link_LReg_TDMsrv"><path d="M347.904,402.1249 C345.257,432.8479 341.245,479.415 338.602,510.0906 " fill="none" id="LReg-to-TDMsrv" style="stroke:#181818;stroke-width:1.0;"/><polygon fill="#181818" points="338.087,516.0685,342.8448,507.4451,338.5162,511.0869,334.8743,506.7583,338.087,516.0685" style="stroke:#181818;stroke-width:1.0;"/><text fill="#000000" font-family="sans-serif" font-size="13" lengthAdjust="spacing" textLength="65" x="344" y="467.3638">login after</text><text fill="#000000" font-family="sans-serif" font-size="13" lengthAdjust="spacing" textLength="112" x="344" y="482.4966">pick Debug mode</text></g><!--link LReg to MUE--><g id="link_LReg_MUE"><path d="M250.494,376.7969 C238.735,376.7969 232.977,376.7969 221.219,376.7969 " fill="none" id="LReg-to-MUE" style="stroke:#181818;stroke-width:1.0;"/><polygon fill="#181818" points="215.219,376.7969,224.219,380.7969,220.219,376.7969,224.219,372.7969,215.219,376.7969" style="stroke:#181818;stroke-width:1.0;"/></g><!--link TAMsrv to TDMsrv--><g id="link_TAMsrv_TDMsrv"><path d="M216.18,559.1174 C227.881,560.1143 233.5901,560.6201 245.2911,560.0132 " fill="none" id="TAMsrv-to-TDMsrv" style="stroke:#181818;stroke-width:1.0;"/><polygon fill="#181818" points="251.283,559.7024,242.0879,556.1739,246.2897,559.9614,242.5023,564.1632,251.283,559.7024" style="stroke:#181818;stroke-width:1.0;"/></g><!--link TDMsrv to TAMsrv--><g id="link_TDMsrv_TAMsrv"><path d="M251.283,522.8914 C239.582,522.2845 233.8593,521.9701 222.1583,522.967 " fill="none" id="TDMsrv-to-TAMsrv" style="stroke:#181818;stroke-width:1.0;"/><polygon fill="#181818" points="216.18,523.4764,225.4871,526.6979,221.162,523.0519,224.808,518.7268,216.18,523.4764" style="stroke:#181818;stroke-width:1.0;"/></g><!--link TAMloc to TDMloc--><g id="link_TAMloc_TDMloc"><path d="M745.849,394.6149 C734.1,395.6169 728.3428,396.124 716.5938,395.51 " fill="none" id="TAMloc-to-TDMloc" style="stroke:#181818;stroke-width:1.0;"/><polygon fill="#181818" points="710.602,395.1969,719.381,399.6611,715.5952,395.4578,719.7985,391.672,710.602,395.1969" style="stroke:#181818;stroke-width:1.0;"/></g><!--link TDMloc to TAMloc--><g id="link_TDMloc_TAMloc"><path d="M710.602,358.3969 C722.351,357.7829 728.1217,357.467 739.8707,358.469 " fill="none" id="TDMloc-to-TAMloc" style="stroke:#181818;stroke-width:1.0;"/><polygon fill="#181818" points="745.849,358.9789,737.2215,354.2286,740.8671,358.554,736.5417,362.1996,745.849,358.9789" style="stroke:#181818;stroke-width:1.0;"/></g><!--link Sett to LReg--><g id="link_Sett_LReg"><path d="M350,198.5069 C350,237.9819 350,306.9899 350,345.5589 " fill="none" id="Sett-to-LReg" style="stroke:#181818;stroke-width:1.0;"/><polygon fill="#181818" points="350,351.5589,354,342.5589,350,346.5589,346,342.5589,350,351.5589" style="stroke:#181818;stroke-width:1.0;"/></g><!--link Sett to Srv--><g id="link_Sett_Srv"><path d="M393.318,198.3069 C418.527,215.4539 448.66,240.3609 466,270.2969 C467.4692,272.8333 468.8295,275.4569 470.0888,278.1474 C470.7185,279.4926 471.3228,280.8546 471.903,282.2308 C472.193,282.9189 472.477,283.6105 472.755,284.3054 C472.8941,284.6528 473.0316,285.001 473.1677,285.35 C473.2357,285.5245 471.1485,280.0995 471.2158,280.2744 " fill="none" id="Sett-to-Srv" style="stroke:#181818;stroke-width:1.0;"/><polygon fill="#181818" points="473.3706,285.8741,473.8715,276.038,471.5749,281.2077,466.4052,278.9111,473.3706,285.8741" style="stroke:#181818;stroke-width:1.0;"/></g><!--link Sett to MUE--><g id="link_Sett_MUE"><path d="M307.069,198.4949 C292.58,207.8569 276.635,218.9439 263,230.2969 C226.767,260.4659 193.9665,294.6298 167.1925,324.5028 " fill="none" id="Sett-to-MUE" style="stroke:#181818;stroke-width:1.0;"/><polygon fill="#181818" points="163.188,328.9709,172.1735,324.9385,166.5251,325.2475,166.2161,319.5991,163.188,328.9709" style="stroke:#181818;stroke-width:1.0;"/><text fill="#000000" font-family="sans-serif" font-size="13" lengthAdjust="spacing" textLength="77" x="264" y="243.3638">User Details</text><text fill="#000000" font-family="sans-serif" font-size="13" lengthAdjust="spacing" textLength="71" x="269" y="258.4966">incomplete</text></g><!--link MUE to TAMsrv--><g id="link_MUE_TAMsrv"><path d="M127.872,424.3629 C131.011,454.3749 134.3397,486.1904 136.8627,510.3083 " fill="none" id="MUE-to-TAMsrv" style="stroke:#181818;stroke-width:1.0;"/><polygon fill="#181818" points="137.487,516.2758,140.5289,506.9084,136.9668,511.3029,132.5723,507.7408,137.487,516.2758" style="stroke:#181818;stroke-width:1.0;"/></g><!--link *start* to FRP--><g id="link_*start*_FRP"><path d="M465.155,62.3049 C475.944,79.0629 498.0622,113.4199 515.0682,139.8359 " fill="none" id="*start*-to-FRP" style="stroke:#181818;stroke-width:1.0;"/><polygon fill="#181818" points="518.316,144.8809,516.8076,135.1482,515.6095,140.6767,510.081,139.4787,518.316,144.8809" style="stroke:#181818;stroke-width:1.0;"/></g><!--link *start* to Sett--><g id="link_*start*_Sett"><path d="M453.448,61.2359 C438.185,77.4009 403.7422,113.8793 378.2552,140.8723 " fill="none" id="*start*-to-Sett" style="stroke:#181818;stroke-width:1.0;"/><polygon fill="#181818" points="374.136,145.2349,383.2232,141.4371,377.5687,141.5994,377.4064,135.9449,374.136,145.2349" style="stroke:#181818;stroke-width:1.0;"/></g><!--link FRP to TAMloc--><g id="link_FRP_TAMloc"><path d="M600.221,198.3959 C639.387,215.4969 689.012,240.3249 728,270.2969 C758.729,293.9199 783.7213,323.7795 801.1183,346.8475 " fill="none" id="FRP-to-TAMloc" style="stroke:#181818;stroke-width:1.0;"/><polygon fill="#181818" points="804.731,351.6379,802.5055,342.0438,801.7204,347.6459,796.1183,346.8608,804.731,351.6379" style="stroke:#181818;stroke-width:1.0;"/></g><!--link FRP to LReg--><g id="link_FRP_LReg"><path d="M511.57,198.5069 C475.595,237.9819 411.2795,308.5552 376.1305,347.1242 " fill="none" id="FRP-to-LReg" style="stroke:#181818;stroke-width:1.0;"/><polygon fill="#181818" points="372.089,351.5589,381.1077,347.6011,375.4569,347.8633,375.1947,342.2125,372.089,351.5589" style="stroke:#181818;stroke-width:1.0;"/></g><!--SRC=[ZLB1Ri8m3BtdAooEan3t7IQX5Kum9WgdTPhIrdJMGeAIK5HD_FkSf6kPfacxK6m_FxzdnvDN27cdgqrTgmxMaZJaNdfqGhZmXScIhFEmFUi9I0VBBNmAWBwsDhLKC20AlJALLBCSROiMJbHzeEtRdiLL39nxHxg118lrtBQ_ULUc8JtROaFEM-d990ahpi0zp1tBXeia3mTZWPdeG5M4ZKGxMPPOm_nq0kR4sB-RhvrjVs4oBC_D3IhxYKgI5jhRhj2FPsjHUzWxjfcXbwHSx5hl5onDrdNmzoIF2Dw02Zu0Zumgj7JELCGo6N0X_mwaMt9KAYpqcUdUgEQXqUFqOTGw9A8idf58vS6pWaA5LVSEZkpWfe4LSPHuHeAGoePK6d8TpXEl21kjkhHmKzqUvu-TAbFzOwS9bU2zd3wL3Qd4DShPeepxTEZ3sXmlCTe-n7Td-vUPSrM47vWoIR0_HloynY3TwFPqXUOhLEPuKkXHXFgq7lSYnClTQ-mCh_ZxVnmdE3DWW-WX3lE_0000]--></g></svg>