<?xml version="1.0" encoding="us-ascii" standalone="no"?><svg xmlns="http://www.w3.org/2000/svg" xmlns:xlink="http://www.w3.org/1999/xlink" contentStyleType="text/css" height="540px" preserveAspectRatio="none" style="width:394px;height:540px;background:#FFFFFF;" version="1.1" viewBox="0 0 394 540" width="394px" zoomAndPan="magnify"><defs/><g><text fill="#000000" font-family="Verdana" font-size="22" font-weight="bold" lengthAdjust="spacing" textLength="311" x="40" y="35.4209">SyncOddly Relationships</text><text fill="#000000" font-family="Verdana" font-size="22" font-weight="bold" lengthAdjust="spacing" textLength="361" x="15" y="61.0303">including Embedded Objects</text><g id="elem_Person"><rect fill="#FFFFFF" height="77.1875" style="stroke:#000000;stroke-width:1.0;" width="100" x="200.75" y="84.2188"/><text fill="#000000" font-family="Verdana" font-size="14" lengthAdjust="spacing" textLength="49" x="226.25" y="99.2139">Person</text><line style="stroke:#000000;stroke-width:1.0;" x1="201.75" x2="299.75" y1="104.5156" y2="104.5156"/><text fill="#000000" font-family="Verdana" font-size="14" lengthAdjust="spacing" textLength="13" x="206.75" y="121.5107">Id</text><text fill="#000000" font-family="Verdana" font-size="14" lengthAdjust="spacing" textLength="44" x="206.75" y="137.8076">UserId</text><text fill="#000000" font-family="Verdana" font-size="14" lengthAdjust="spacing" textLength="88" x="206.75" y="154.1045">Name, Email</text></g><g id="elem_PersonLookup"><rect fill="#FFFFFF" height="60.8906" style="stroke:#000000;stroke-width:1.0;" width="116" x="96.75" y="238.2188"/><text fill="#000000" font-family="Verdana" font-size="14" lengthAdjust="spacing" textLength="102" x="103.75" y="253.2139">PersonLookup</text><line style="stroke:#000000;stroke-width:1.0;" x1="97.75" x2="211.75" y1="258.5156" y2="258.5156"/><text fill="#000000" font-family="Verdana" font-size="14" lengthAdjust="spacing" textLength="13" x="102.75" y="275.5107">Id</text><text fill="#000000" font-family="Verdana" font-size="14" lengthAdjust="spacing" textLength="88" x="102.75" y="291.8076">Name, Email</text></g><g id="elem_SharedWith"><rect fill="#FFFFFF" height="60.8906" style="stroke:#000000;stroke-width:1.0;" width="98" x="175.75" y="376.2188"/><text fill="#000000" font-family="Verdana" font-size="14" lengthAdjust="spacing" textLength="84" x="182.75" y="391.2139">SharedWith</text><line style="stroke:#000000;stroke-width:1.0;" x1="176.75" x2="272.75" y1="396.5156" y2="396.5156"/><text fill="#000000" font-family="Verdana" font-size="14" lengthAdjust="spacing" textLength="59" x="181.75" y="413.5107">OwnerId</text><text fill="#000000" font-family="Verdana" font-size="14" lengthAdjust="spacing" textLength="83" x="181.75" y="429.8076">RecipientId</text></g><g id="elem_Appointments"><rect fill="#FFFFFF" height="36.2969" style="stroke:#000000;stroke-width:1.0;" width="119" x="29.25" y="498.2188"/><text fill="#000000" font-family="Verdana" font-size="14" lengthAdjust="spacing" textLength="105" x="36.25" y="513.2139">Appointments</text><line style="stroke:#000000;stroke-width:1.0;" x1="30.25" x2="147.25" y1="518.5156" y2="518.5156"/></g><g id="elem_Notes"><rect fill="#FFFFFF" height="36.2969" style="stroke:#000000;stroke-width:1.0;" width="56" x="320.75" y="498.2188"/><text fill="#000000" font-family="Verdana" font-size="14" lengthAdjust="spacing" textLength="42" x="327.75" y="513.2139">Notes</text><line style="stroke:#000000;stroke-width:1.0;" x1="321.75" x2="375.75" y1="518.5156" y2="518.5156"/></g><!--reverse link Person to PersonLookup--><g id="link_Person_PersonLookup"><path codeLine="11" d="M218.8708,171.5375 C202.9828,195.3705 189.416,215.7188 174.659,237.8548 " fill="none" id="Person-backto-PersonLookup" style="stroke:#000000;stroke-width:1.0;"/><polygon fill="none" points="225.527,161.5528,218.8707,164.3264,218.8708,171.5375,225.5271,168.7639,225.527,161.5528" style="stroke:#000000;stroke-width:1.0;"/><text fill="#000000" font-family="Verdana" font-size="13" lengthAdjust="spacing" textLength="11" x="206.75" y="204.2856">Id</text></g><!--reverse link Person to SharedWith--><g id="link_Person_SharedWith"><path codeLine="12" d="M261.8236,173.3114 C270.6366,218.2454 278.31,283.2748 260.75,346.2188 C257.863,356.5688 252.632,366.9138 247.036,376.0068 " fill="none" id="Person-backto-SharedWith" style="stroke:#000000;stroke-width:1.0;"/><polygon fill="none" points="259.514,161.5358,256.7436,168.1934,261.8236,173.3114,264.594,166.6537,259.514,161.5358" style="stroke:#000000;stroke-width:1.0;"/><text fill="#000000" font-family="Verdana" font-size="13" lengthAdjust="spacing" textLength="53" x="271.75" y="273.2856">OwnerId</text></g><!--reverse link Person to Appointments--><g id="link_Person_Appointments"><path codeLine="13" d="M189.561,146.3392 C148.544,163.9462 104.3254,190.4688 78.75,238.2188 C31.8316,325.8158 67.1124,452.3296 82.5104,497.9797 " fill="none" id="Person-backto-Appointments" style="stroke:#000000;stroke-width:1.0;"/><polygon fill="#000000" points="200.588,141.6058,193.4967,140.2968,189.561,146.3392,196.6523,147.6481,200.588,141.6058" style="stroke:#000000;stroke-width:1.0;"/></g><!--reverse link Person to Notes--><g id="link_Person_Notes"><path codeLine="14" d="M294.2303,170.4605 C311.8253,191.3975 323.66,209.7557 333.75,238.2188 C366.818,331.5018 356.462,453.5157 351.09,498.0241 " fill="none" id="Person-backto-Notes" style="stroke:#000000;stroke-width:1.0;"/><polygon fill="#000000" points="286.51,161.2738,287.3079,168.4406,294.2303,170.4605,293.4324,163.2937,286.51,161.2738" style="stroke:#000000;stroke-width:1.0;"/></g><!--reverse link PersonLookup to SharedWith--><g id="link_PersonLookup_SharedWith"><path codeLine="16" d="M168.796,310.7208 C174.055,325.1668 176.935,331.3088 184.75,346.2188 C190.009,356.2508 196.583,366.6688 202.873,375.9317 " fill="none" id="PersonLookup-backto-SharedWith" style="stroke:#000000;stroke-width:1.0;"/><polygon fill="none" points="164.691,299.4448,162.9848,306.4511,168.796,310.7208,170.5022,303.7144,164.691,299.4448" style="stroke:#000000;stroke-width:1.0;"/><text fill="#000000" font-family="Verdana" font-size="13" lengthAdjust="spacing" textLength="70" x="185.75" y="342.2856">RecipientId</text></g><!--reverse link SharedWith to Appointments--><g id="link_SharedWith_Appointments"><path codeLine="18" d="M177.8129,444.8196 C153.1259,464.3338 131.094,481.7482 110.4653,498.0541 " fill="none" id="SharedWith-backto-Appointments" style="stroke:#000000;stroke-width:1.0;"/><polygon fill="#000000" points="187.227,437.3782,180.0395,437.9609,177.8129,444.8196,185.0005,444.2369,187.227,437.3782" style="stroke:#000000;stroke-width:1.0;"/></g><!--reverse link SharedWith to Notes--><g id="link_SharedWith_Notes"><path codeLine="19" d="M268.029,445.2388 C290.538,464.753 310.142,481.7482 328.951,498.0541 " fill="none" id="SharedWith-backto-Notes" style="stroke:#000000;stroke-width:1.0;"/><polygon fill="#000000" points="258.962,437.3782,260.8753,444.3308,268.029,445.2388,266.1157,438.2861,258.962,437.3782" style="stroke:#000000;stroke-width:1.0;"/></g><!--SRC=[TP3D3i8W48JlFCLwDVe2lNdmO6AiiJ5UlD2oiQjq8ON6zEqbsbhmvmOpoxSpp7oD3OBLabW8JruZ53rNkLAwXmDgwScmgycwCnDNkbF45rWt9Ig52lBoYfLtGfZd0VROEiFfRMlChREZLjIoHNKYNu_Aobf3x1la01gqdV4Og2y0cEKoOK466nMR4pHO-PsndVnvy9CLaPwi6TXVl0DMP2ay3KmHEL_W3o_j44VEuEZYY1diP8EByAsIjFZNzAt4mp-R_ul_0000]--></g></svg>